<?xml version="1.0" standalone="no"?><!DOCTYPE svg PUBLIC "-//W3C//DTD SVG 1.1//EN" "http://www.w3.org/Graphics/SVG/1.1/DTD/svg11.dtd"><svg width="100%" height="100%" viewBox="0 0 526 104" version="1.1" xmlns="http://www.w3.org/2000/svg" xmlns:xlink="http://www.w3.org/1999/xlink" xml:space="preserve" style="fill-rule:evenodd;clip-rule:evenodd;stroke-linejoin:round;stroke-miterlimit:1.41421;"><g id="g3263"><path id="path3094" d="M126.019,83.258l0,-82.553l-12.366,0l0,82.553l12.366,0" style="fill:#888;fill-rule:nonzero;"/><path id="path3096" d="M144.995,83.258l0,-82.553l-12.366,0l0,82.553l12.366,0" style="fill:#888;fill-rule:nonzero;"/><path id="path3098" d="M215.61,83.258l0,-62.516l-12.481,0l0,8.473c-6.106,-7.022 -13.701,-10.534 -22.785,-10.534c-4.427,0 -8.549,0.84 -12.366,2.519c-3.74,1.603 -7.06,4.122 -9.961,7.557c-5.954,6.412 -8.931,14.16 -8.931,23.243c0,9.007 2.939,16.717 8.817,23.129c5.954,6.717 13.434,10.075 22.441,10.075c9.236,0 16.831,-3.511 22.785,-10.533l0,8.587l12.481,0M203.129,52c0,5.801 -2.023,10.725 -6.068,14.77c-4.046,4.046 -8.969,6.069 -14.77,6.069c-5.802,0 -10.725,-2.023 -14.77,-6.069c-4.046,-4.045 -6.069,-8.969 -6.069,-14.77c0,-5.801 2.023,-10.725 6.069,-14.77c4.045,-4.046 8.968,-6.069 14.77,-6.069c5.801,0 10.724,2.023 14.77,6.069c4.045,4.045 6.068,8.969 6.068,14.77" style="fill:#888;fill-rule:nonzero;"/><path id="path3100" d="M288.763,52c0,-8.931 -2.977,-16.678 -8.931,-23.243c-6.03,-6.717 -13.473,-10.076 -22.327,-10.076c-4.733,0 -8.969,0.916 -12.709,2.748c-3.741,1.756 -7.137,4.351 -10.191,7.786l0,-28.51l-12.365,0l0,82.553l12.365,0l0,-8.587c3.054,3.511 6.45,6.144 10.191,7.9c3.74,1.756 7.976,2.633 12.709,2.633c8.931,0 16.411,-3.358 22.441,-10.075c5.878,-6.565 8.817,-14.274 8.817,-23.129M276.282,52c0,5.801 -2.022,10.725 -6.068,14.77c-4.046,4.046 -8.969,6.069 -14.77,6.069c-5.801,0 -10.725,-2.023 -14.77,-6.069c-4.046,-4.045 -6.069,-8.969 -6.069,-14.77c0,-5.801 2.023,-10.725 6.069,-14.77c4.045,-4.046 8.969,-6.069 14.77,-6.069c5.801,0 10.724,2.023 14.77,6.069c4.046,4.045 6.068,8.969 6.068,14.77" style="fill:#888;fill-rule:nonzero;"/><path id="path3102" d="M344.283,65.511c0,-7.939 -3.626,-13.358 -10.877,-16.259l0.114,0c-0.61,-0.382 -6.984,-1.717 -19.121,-4.007c-6.106,-1.298 -9.159,-3.588 -9.159,-6.87c0,-2.443 1.45,-4.313 4.35,-5.611c2.367,-1.068 5.191,-1.603 8.473,-1.603c1.756,0 3.321,0.153 4.695,0.458c1.374,0.229 2.671,0.611 3.893,1.145c2.824,1.298 4.236,3.588 4.236,6.87l12.48,0c0,-7.022 -2.862,-12.404 -8.587,-16.144c-4.809,-3.206 -10.381,-4.809 -16.717,-4.809c-6.335,0 -11.907,1.603 -16.716,4.809c-5.649,3.664 -8.473,8.626 -8.473,14.885c0,8.015 3.626,13.472 10.877,16.373c0.611,0.229 2.481,0.687 5.61,1.374c3.13,0.611 7.595,1.488 13.397,2.633c6.106,1.298 9.159,3.55 9.16,6.756c-0.001,4.885 -4.619,7.328 -13.855,7.328c-1.832,0 -3.511,-0.115 -5.038,-0.344c-1.45,-0.305 -2.786,-0.687 -4.007,-1.145c-3.206,-1.221 -4.809,-3.587 -4.809,-7.099l-12.366,0c0,7.175 3.015,12.633 9.046,16.373c5.038,3.054 10.762,4.58 17.174,4.58c6.336,0 12.099,-1.526 17.289,-4.58c5.954,-3.74 8.931,-8.778 8.931,-15.113" style="fill:#888;fill-rule:nonzero;"/><path id="path3104" d="M416.39,52c0,-8.931 -2.977,-16.678 -8.931,-23.243c-6.03,-6.717 -13.473,-10.076 -22.327,-10.076c-4.733,0 -8.969,0.916 -12.709,2.748c-3.741,1.756 -7.137,4.351 -10.191,7.786l0,-8.473l-12.365,0l0,82.553l12.365,0l0,-28.624c3.054,3.511 6.45,6.144 10.191,7.9c3.74,1.756 7.976,2.633 12.709,2.633c8.931,0 16.411,-3.358 22.442,-10.075c5.877,-6.565 8.816,-14.274 8.816,-23.129M403.91,52c0,5.801 -2.023,10.725 -6.069,14.77c-4.045,4.046 -8.969,6.069 -14.77,6.069c-5.801,0 -10.725,-2.023 -14.77,-6.069c-4.046,-4.045 -6.069,-8.969 -6.069,-14.77c0,-5.801 2.023,-10.725 6.069,-14.77c4.045,-4.046 8.969,-6.069 14.77,-6.069c5.801,0 10.725,2.023 14.77,6.069c4.046,4.045 6.069,8.969 6.069,14.77" style="fill:#888;fill-rule:nonzero;"/><path id="path3106" d="M484.505,52c0,-9.083 -3.282,-16.907 -9.847,-23.472c-6.564,-6.564 -14.388,-9.847 -23.472,-9.847c-9.083,0 -16.869,3.283 -23.357,9.847c-6.565,6.565 -9.847,14.389 -9.847,23.472c0,9.084 3.282,16.869 9.847,23.358c6.488,6.564 14.274,9.846 23.357,9.846c9.084,0 16.908,-3.282 23.472,-9.846c6.565,-6.489 9.847,-14.274 9.847,-23.358M472.025,52c0,5.801 -2.023,10.725 -6.068,14.77c-4.046,4.046 -8.969,6.069 -14.771,6.069c-5.801,0 -10.724,-2.023 -14.77,-6.069c-4.045,-4.045 -6.068,-8.969 -6.068,-14.77c0,-5.801 2.023,-10.725 6.068,-14.77c4.046,-4.046 8.969,-6.069 14.77,-6.069c5.802,0 10.725,2.023 14.771,6.069c4.045,4.045 6.068,8.969 6.068,14.77" style="fill:#888;fill-rule:nonzero;"/><path id="path3108" d="M504.025,31.39l0,29.999c0,2.9 0.764,5.229 2.29,6.984c1.527,1.679 3.664,2.519 6.412,2.519c2.748,0 5.382,-1.336 7.901,-4.007l5.266,9.045c-4.503,4.046 -9.503,6.068 -14.999,6.068c-5.419,0 -10.076,-1.87 -13.968,-5.61c-3.817,-3.817 -5.725,-8.931 -5.725,-15.343l0,-29.655l-7.672,0l0,-10.304l7.672,0l0,-19.121l12.823,0l0,19.121l16.03,0l0,10.304l-16.03,0" style="fill:#888;fill-rule:nonzero;"/><path id="path4929" d="M77.574,18.58c-8.072,0 -15.459,2.888 -21.205,7.687c2.675,2.604 4.945,5.62 6.695,8.955c3.872,-3.413 8.943,-5.491 14.51,-5.491c12.131,0 21.965,9.834 21.965,21.965c0,12.131 -9.834,21.965 -21.965,21.965c-7.565,0 -14.234,-3.831 -18.184,-9.652l-10.624,4.013c5.694,10.02 16.459,16.79 28.808,16.79c18.289,0 33.116,-14.827 33.116,-33.116c0,-18.29 -14.827,-33.116 -33.116,-33.116Z" style="fill:#f98c2f;fill-rule:nonzero;"/><path id="path5009" d="M33.222,84.812c8.072,0 15.458,-2.889 21.204,-7.688c-2.674,-2.604 -4.944,-5.62 -6.695,-8.955c-3.871,3.414 -8.942,5.492 -14.509,5.492c-12.131,0 -21.965,-9.834 -21.965,-21.965c0,-12.131 9.834,-21.965 21.965,-21.965c7.565,0 14.234,3.831 18.184,9.652l10.624,-4.013c-5.694,-10.02 -16.459,-16.79 -28.808,-16.79c-18.29,0 -33.116,14.826 -33.116,33.116c0,18.289 14.826,33.116 33.116,33.116l0,0Z" style="fill:#888;fill-rule:nonzero;"/></g></svg>