<svg id="Layer_1" data-name="Layer 1" xmlns="http://www.w3.org/2000/svg" xmlns:xlink="http://www.w3.org/1999/xlink" viewBox="0 0 128 128">
  <defs>
    <linearGradient id="linear-gradient" x1="45.71" y1="-698.26" x2="121.89" y2="-698.26" gradientTransform="matrix(1, 0, 0, -1, 0, -648.86)" gradientUnits="userSpaceOnUse">
      <stop offset="0" stop-color="#21d789"/>
      <stop offset="1" stop-color="#07c3f2"/>
    </linearGradient>
    <linearGradient id="linear-gradient-2" x1="-44.89" y1="-756.89" x2="111.96" y2="-641.1" gradientTransform="matrix(1, 0, 0, -1, 0, -648.86)" gradientUnits="userSpaceOnUse">
      <stop offset="0.01" stop-color="#fcf84a"/>
      <stop offset="0.11" stop-color="#a7eb62"/>
      <stop offset="0.21" stop-color="#5fe077"/>
      <stop offset="0.27" stop-color="#32da84"/>
      <stop offset="0.31" stop-color="#21d789"/>
      <stop offset="0.58" stop-color="#21d789"/>
      <stop offset="0.6" stop-color="#21d789"/>
      <stop offset="0.69" stop-color="#20d68c"/>
      <stop offset="0.76" stop-color="#1ed497"/>
      <stop offset="0.83" stop-color="#19d1a9"/>
      <stop offset="0.9" stop-color="#13ccc2"/>
      <stop offset="0.97" stop-color="#0bc6e1"/>
      <stop offset="1" stop-color="#07c3f2"/>
    </linearGradient>
    <linearGradient id="linear-gradient-3" x1="17.07" y1="-790.84" x2="43.23" y2="-708.75" gradientTransform="matrix(1, 0, 0, -1, 0, -648.86)" gradientUnits="userSpaceOnUse">
      <stop offset="0" stop-color="#21d789"/>
      <stop offset="0.16" stop-color="#24d788"/>
      <stop offset="0.3" stop-color="#2fd886"/>
      <stop offset="0.44" stop-color="#41da82"/>
      <stop offset="0.56" stop-color="#5adc7d"/>
      <stop offset="0.69" stop-color="#7ae077"/>
      <stop offset="0.81" stop-color="#a1e36e"/>
      <stop offset="0.93" stop-color="#cfe865"/>
      <stop offset="1" stop-color="#f1eb5e"/>
    </linearGradient>
    <linearGradient id="linear-gradient-4" x1="51.71" y1="-719.47" x2="108.64" y2="-642.93" gradientTransform="matrix(1, 0, 0, -1, 0, -648.86)" gradientUnits="userSpaceOnUse">
      <stop offset="0" stop-color="#21d789"/>
      <stop offset="0.06" stop-color="#24d788"/>
      <stop offset="0.11" stop-color="#2fd886"/>
      <stop offset="0.16" stop-color="#41da82"/>
      <stop offset="0.21" stop-color="#5add7d"/>
      <stop offset="0.25" stop-color="#79e077"/>
      <stop offset="0.26" stop-color="#7ce076"/>
      <stop offset="0.5" stop-color="#8ce173"/>
      <stop offset="0.92" stop-color="#b2e56b"/>
    </linearGradient>
    <linearGradient id="linear-gradient-5" x1="138.77" y1="-729.22" x2="24.06" y2="-728.15" gradientTransform="matrix(1, 0, 0, -1, 0, -648.86)" gradientUnits="userSpaceOnUse">
      <stop offset="0.39" stop-color="#fcf84a"/>
      <stop offset="0.54" stop-color="#ecf451"/>
      <stop offset="0.83" stop-color="#c2e964"/>
      <stop offset="0.92" stop-color="#b2e56b"/>
    </linearGradient>
  </defs>
  <title>icon_PyCharm</title>
  <g>
    <polygon points="89.8 20.2 127.2 51.2 113.6 78.6 91.2 72.4 71.6 72.4 89.8 20.2" fill="url(#linear-gradient)"/>
    <polygon points="52 40.4 44.8 78.6 44.2 91.8 25.8 99.6 0 102.4 7.8 19.6 54.8 0 83.6 19 52 40.4" fill="url(#linear-gradient-2)"/>
    <polygon points="52 40.4 55.6 114.2 43.8 128 0 102.4 36 48.6 52 40.4" fill="url(#linear-gradient-3)"/>
    <polygon points="100.4 35 56 35 95.2 0 100.4 35" fill="url(#linear-gradient-4)"/>
    <polygon points="128 114.4 89 127.8 37 113.2 52 40.4 58 35 89.8 32 86.8 63.8 112 54 128 114.4" fill="url(#linear-gradient-5)"/>
  </g>
  <g>
    <rect x="24" y="24" width="80" height="80"/>
    <rect x="31.6" y="89" width="30" height="5" fill="#fff"/>
    <path d="M31.4,34.4H45c8,0,12.6,4.6,12.6,11.4h0c0,7.6-6,11.6-13.4,11.6H38.6v10H31.4v-33h0ZM50.2,46.2h0c0-3.2-2.2-5-6-5H38.6V51.4h5.8C48.33,51.4,50.2,49,50.2,46.2Z" fill="#fff"/>
    <path d="M60.4,51.2h0A16.83,16.83,0,0,1,77.6,34c6.2,0,10,2,13,5.2L86,44.6c-2.6-2.4-5.2-3.8-8.4-3.8C72,40.8,68,45.4,68,51.2h0c0,5.6,4,10.4,9.6,10.4,3.8,0,6.2-1.6,8.8-3.8L91,62.4c-3.4,3.6-7.2,6-13.6,6a17,17,0,0,1-17-17.2" fill="#fff"/>
  </g>
</svg>
